inDegrees=no
num_controls=7
num_derivatives=13
num_iterations=123
num_multipliers=7
num_parameters=0
num_slacks=7
num_states=26
objective=0.499398
objective_accelerations=0.031335
objective_balance=0.003183
objective_effort=0.033652
objective_height=0.425827
objective_ligament=0.005401
solver_duration=1424.587649
status=Solve_Succeeded
success=true
DataType=double
version=3
OpenSimVersion=4.5
endheader
time	/jointset/ground_pelvis/pelvis_tilt/value	/jointset/ground_pelvis/pelvis_tx/value	/jointset/ground_pelvis/pelvis_ty/value	/jointset/hip_r/hip_flexion_r/value	/jointset/hip_r/hip_adduction_r/value	/jointset/hip_r/hip_rotation_r/value	/jointset/back/lumbar_extension/value	/jointset/patellofemoral_r/patellar_flexion_r/value	/jointset/knee_r/knee_flexion_r/value	/jointset/knee_r/knee_adduction_r/value	/jointset/knee_r/knee_rotation_r/value	/jointset/ankle_r/ankle_angle_r/value	/jointset/subtalar_r/subtalar_angle_r/value	/jointset/ground_pelvis/pelvis_tilt/speed	/jointset/ground_pelvis/pelvis_tx/speed	/jointset/ground_pelvis/pelvis_ty/speed	/jointset/hip_r/hip_flexion_r/speed	/jointset/hip_r/hip_adduction_r/speed	/jointset/hip_r/hip_rotation_r/speed	/jointset/back/lumbar_extension/speed	/jointset/patellofemoral_r/patellar_flexion_r/speed	/jointset/knee_r/knee_flexion_r/speed	/jointset/knee_r/knee_adduction_r/speed	/jointset/knee_r/knee_rotation_r/speed	/jointset/ankle_r/ankle_angle_r/speed	/jointset/subtalar_r/subtalar_angle_r/speed	/forceset/tau_hip_flexion_r	/forceset/tau_hip_adduction_r	/forceset/tau_hip_rotation_r	/forceset/tau_knee_flexion_r	/forceset/tau_ankle_angle_r	/forceset/tau_subtalar_angle_r	/forceset/tau_lumbar_extension	lambda_cid13_p0	lambda_cid14_p0	lambda_cid14_p1	lambda_cid14_p2	lambda_cid14_p3	lambda_cid14_p4	lambda_cid14_p5	/jointset/ground_pelvis/pelvis_tilt/accel	/jointset/ground_pelvis/pelvis_tx/accel	/jointset/ground_pelvis/pelvis_ty/accel	/jointset/hip_r/hip_flexion_r/accel	/jointset/hip_r/hip_adduction_r/accel	/jointset/hip_r/hip_rotation_r/accel	/jointset/back/lumbar_extension/accel	/jointset/patellofemoral_r/patellar_flexion_r/accel	/jointset/knee_r/knee_flexion_r/accel	/jointset/knee_r/knee_adduction_r/accel	/jointset/knee_r/knee_rotation_r/accel	/jointset/ankle_r/ankle_angle_r/accel	/jointset/subtalar_r/subtalar_angle_r/accel	gamma_cid13_p0	gamma_cid14_p0	gamma_cid14_p1	gamma_cid14_p2	gamma_cid14_p3	gamma_cid14_p4	gamma_cid14_p5
1.5	-0.09191073271881571	0.06959794134652714	0.8783586572835933	0.6200163384062043	-0.2265678752145699	-0.1500964769610601	-0.2719308555117489	0.6149293978759988	0.6149293978760136	0.04442576328095327	0.1745314062612907	0.2560702184588361	0.05946497177913579	0.1876192563091922	0.1027193613760741	0.2937125261225671	-1.323724035608242	0.0170032103040392	-0.267634841123163	0.6977515908098224	-1.667402329332463	-1.667402329332464	0.2773114096510351	1.647811068499361e-05	-0.6198810563515544	-0.1561262365426974	-0.05250290589482336	-0.01634606990903993	0.005439067957314288	-0.3173717249929586	0.05036270495299476	-0.01304838762400473	0.1130485550209368	-35.86844758295781	-25.75174945308904	-6.022582976991991	-3.323908060568079	4.356560189782813	-664.3416719096365	56.92954817134504	0.02342153269664151	0.2119518867850766	-0.4208100524799473	-0.6185026016798878	-0.02485671451290655	-0.5406611361835951	1.08433906313266	-0.9141249366240951	-0.9141249366240954	0.3591809308251939	-0.00593109342618104	-0.4349384703313391	-0.02891319248247966	1.079347591642834e-07	1.318709835724253e-07	-5.942952837423025e-07	1.133152823590489e-06	-4.027786914268831e-09	1.475164628821865e-07	-9.110775477788218e-07
1.51	-0.09003380629305628	0.07063558992558892	0.8812740898834533	0.6067500549839397	-0.2263997916671346	-0.1527991310164832	-0.2648998906140724	0.5982120158845515	0.5982120158845677	0.04721841221294454	0.1745315816020307	0.249850300800485	0.05790150596100181	0.1877388644746193	0.1047941711785971	0.2893147088627025	-1.329348979679049	0.01661503966978542	-0.272884737564244	0.7083412024050081	-1.675836688694978	-1.675836688694982	0.2811969944773495	1.684471405023555e-05	-0.6240142364760586	-0.1565386709976889	-0.04738974905619835	-0.01831852232503255	0.004822083533607289	-0.314425683491759	0.054572571260573	-0.01380149895802976	0.1082488826395234	-36.66075907887735	-24.29832986749965	-5.987626974089976	-3.452327476668042	3.831463214646514	-661.6591861343103	57.12653725655303	0.002169025876411803	0.2028209155440915	-0.4581298583060086	-0.5069241997320986	-0.04544225570286373	-0.5152785402596045	1.031244259652236	-0.7725086821639475	-0.7725086821643465	0.4000027827231215	0.002956049277196331	-0.3892567756285204	-0.04315587491831123	1.168396582880642e-07	1.32052585061897e-07	-7.128600126077483e-07	1.145552519308261e-06	8.125396795664206e-09	1.50648669870617e-07	-9.901335118943374e-07
1.52	-0.08815649607216043	0.07169350168038757	0.8841437718516015	0.593433035342977	-0.2262355188296062	-0.155553908964755	-0.257766035190056	0.581417406850259	0.5814174068502769	0.05004926809803643	0.1745317477112164	0.2435917015424651	0.05633476633773574	0.1876960153364731	0.1067719965234478	0.2845623997801865	-1.333871279347898	0.01624106832268166	-0.2780596196928953	0.7183296960778222	-1.682847737901444	-1.682847737901451	0.2849528002712063	1.463179978809629e-05	-0.6276173762853056	-0.1567809975691131	-0.04227659221757322	-0.02029097474102481	0.004205099109907099	-0.3114796419905595	0.05878243756815131	-0.01455461029205442	0.10344921025811	-37.41702447930547	-22.85444480049703	-5.951621701908802	-3.584020320280164	3.304230499105238	-659.1333409571178	57.39528371060887	-0.009069928018020788	0.1925549952506004	-0.4917084170102081	-0.3979737212886013	-0.02201685708289865	-0.5256582736976532	0.9641154786583531	-0.62946290541442	-0.6294629054144217	0.3332251243336757	-0.006446996951660325	-0.3289304072798946	0.005108384231006406	1.258561440899e-07	1.322054020885177e-07	-8.292078005086046e-07	1.156639945363665e-06	1.999805851012668e-08	1.534603514386686e-07	-1.064604760276752e-06
1.53	-0.08628043314829596	0.07277067594073922	0.8869642059788929	0.5800763512756457	-0.2260749656195372	-0.1583601886211445	-0.2505353898274349	0.564559878909902	0.5645598789099012	0.05291704727899971	0.1745320472040949	0.2372997315317865	0.05476638910359641	0.1874901351819594	0.1086432881579466	0.2794702223248772	-1.337275856592917	0.01587088340162752	-0.2831727537302	0.7276878275041753	-1.688411217362826	-1.688411217362822	0.2885845970803509	3.784844648642756e-05	-0.6306852543702619	-0.1568675285573615	-0.03708450520700222	-0.0224089137258379	0.003603484450283017	-0.3085991141249804	0.06310609085358547	-0.01542131941156945	0.0985945009947489	-38.13316801342928	-21.38497549717351	-5.96693284874624	-3.700151700378242	2.790861850309846	-656.6697580615138	57.61209491141694	-0.03029891301031279	0.1814886930290352	-0.5260714618888717	-0.2832325216438831	-0.04422065724186847	-0.5004003196955226	0.9049296333004967	-0.4828235217644314	-0.4828235217629053	0.3753251478871224	0.005793838607124465	-0.2819904928289997	-0.01151534408106051	1.349911907371689e-07	1.323276356233591e-07	-9.432000886345842e-07	1.1663330849028e-06	3.157266560440171e-08	1.559314747475677e-07	-1.134204748192746e-06
1.54	-0.08440721939674509	0.07386597760653177	0.8897320985212115	0.5666913148767573	-0.2259180545282038	-0.1612168514880966	-0.2432145096188149	0.5476541095638783	0.5476541095638588	0.05582057806579091	0.1745323964320666	0.2309798279435132	0.05319795025882892	0.1871261808737549	0.1103974776116266	0.2740540827856651	-1.339541745659351	0.01551264457556547	-0.2881362618054505	0.736376665277597	-1.692496019034785	-1.692496019034771	0.2921031214367861	2.457881824651327e-05	-0.633204091804238	-0.1567933196947418	-0.03189241819643095	-0.02452685271065064	0.003001869790658885	-0.3057185862594011	0.06742974413901975	-0.01628802853108399	0.09373979173138797	-38.8051763104273	-19.92542161199769	-5.980895660479008	-3.820022007678338	2.274985892006002	-654.3716800009814	57.90434954253469	-0.04068475875615506	0.1691345590868384	-0.5565008337907702	-0.1702360855715498	-0.01962763808447886	-0.4957330812868321	0.8302567480721238	-0.3337273475300714	-0.3337273475300709	0.3105706337917664	-0.01374425193931192	-0.2191222770838315	0.03725635440462376	1.448459444065417e-07	1.324288656263391e-07	-1.06634207228637e-06	1.174228533709402e-06	4.374150874857904e-08	1.597271426600514e-07	-1.205310173607737e-06
1.55	-0.08253844123794397	0.07497821509172879	0.8924442633055637	0.5532893503921128	-0.2257647125302902	-0.164122624581794	-0.2358101843590237	0.5307149714581342	0.53071497145813	0.05875868306619279	0.1745326792598373	0.2246375105410893	0.05163100803105666	0.1866013628986434	0.1120280387229469	0.2683297750806233	-1.340651945994344	0.01515710706529783	-0.2929857501327049	0.7443676008466443	-1.695072459323502	-1.6950724593235	0.2954976096702225	2.195791913083935e-05	-0.6351621491530897	-0.1565682343403053	-0.02658131022179914	-0.02680573841980497	0.002402265398775575	-0.3030046314204355	0.07202879759547551	-0.01731055339186814	0.08880939644430821	-39.42910754500513	-18.39052637471167	-6.057675243073075	-3.920353145174384	1.728681476308234	-652.1524459041367	58.12996719675263	-0.06258046183029427	0.1567325285853599	-0.5877269883926127	-0.05151602846518252	-0.04324095881659649	-0.4744415362895308	0.765394086231014	-0.1807632440616616	-0.1807632440634774	0.3507455842829907	0.005178462784192536	-0.1695350805791049	0.01910764572825129	1.555299257318165e-07	1.325058959078267e-07	-1.200026096435279e-06	1.180052730150258e-06	5.659501516764376e-08	1.650489163114477e-07	-1.27815012483679e-06
